<mxfile host="app.diagrams.net" modified="2020-10-11T16:58:49.720Z" agent="5.0 (Windows NT 10.0; Win64; x64) AppleWebKit/537.36 (KHTML, like Gecko) Chrome/85.0.4183.121 Safari/537.36" etag="3vEFMczsbvaNQaBjlDnb" version="13.7.9" type="github">
  <diagram id="JBTWisDyrdIRTL2uabiF" name="Page-1">
    <mxGraphModel dx="813" dy="435" grid="1" gridSize="10" guides="1" tooltips="1" connect="1" arrows="1" fold="1" page="1" pageScale="1" pageWidth="850" pageHeight="1100" math="0" shadow="0">
      <root>
        <mxCell id="0" />
        <mxCell id="1" parent="0" />
        <mxCell id="P-KI92WygOCYOFbgIHo4-33" style="edgeStyle=orthogonalEdgeStyle;rounded=0;orthogonalLoop=1;jettySize=auto;html=1;exitX=1;exitY=0.5;exitDx=0;exitDy=0;entryX=0.5;entryY=0;entryDx=0;entryDy=0;" parent="1" source="P-KI92WygOCYOFbgIHo4-1" target="P-KI92WygOCYOFbgIHo4-9" edge="1">
          <mxGeometry relative="1" as="geometry">
            <mxPoint x="540" y="30.142857142857167" as="targetPoint" />
          </mxGeometry>
        </mxCell>
        <mxCell id="P-KI92WygOCYOFbgIHo4-1" value="Main.c" style="rounded=1;whiteSpace=wrap;html=1;" parent="1" vertex="1">
          <mxGeometry x="370" y="10" width="100" height="40" as="geometry" />
        </mxCell>
        <mxCell id="P-KI92WygOCYOFbgIHo4-2" value="SDL2/SDL.h" style="rounded=0;whiteSpace=wrap;html=1;fillColor=#f8cecc;strokeColor=#b85450;" parent="1" vertex="1">
          <mxGeometry x="700" y="170" width="130" height="40" as="geometry" />
        </mxCell>
        <mxCell id="P-KI92WygOCYOFbgIHo4-3" value="SDL2/SDL_image.h" style="rounded=0;whiteSpace=wrap;html=1;fillColor=#f8cecc;strokeColor=#b85450;" parent="1" vertex="1">
          <mxGeometry x="700" y="220" width="130" height="40" as="geometry" />
        </mxCell>
        <mxCell id="P-KI92WygOCYOFbgIHo4-5" value="stdio.h" style="rounded=0;whiteSpace=wrap;html=1;fillColor=#dae8fc;strokeColor=#6c8ebf;" parent="1" vertex="1">
          <mxGeometry x="700" y="270" width="100" height="40" as="geometry" />
        </mxCell>
        <mxCell id="P-KI92WygOCYOFbgIHo4-6" value="math.h" style="rounded=0;whiteSpace=wrap;html=1;fillColor=#dae8fc;strokeColor=#6c8ebf;" parent="1" vertex="1">
          <mxGeometry x="700" y="320" width="110" height="40" as="geometry" />
        </mxCell>
        <mxCell id="P-KI92WygOCYOFbgIHo4-7" value="Entity.h" style="rounded=1;whiteSpace=wrap;html=1;" parent="1" vertex="1">
          <mxGeometry x="210" y="100" width="77.5" height="30" as="geometry" />
        </mxCell>
        <mxCell id="P-KI92WygOCYOFbgIHo4-8" value="Textures.h" style="rounded=1;whiteSpace=wrap;html=1;" parent="1" vertex="1">
          <mxGeometry x="410" y="225" width="80" height="30" as="geometry" />
        </mxCell>
        <mxCell id="P-KI92WygOCYOFbgIHo4-9" value="Input.h" style="rounded=1;whiteSpace=wrap;html=1;" parent="1" vertex="1">
          <mxGeometry x="500" y="100" width="76.25" height="30" as="geometry" />
        </mxCell>
        <mxCell id="P-KI92WygOCYOFbgIHo4-10" value="Blit.h" style="rounded=1;whiteSpace=wrap;html=1;" parent="1" vertex="1">
          <mxGeometry x="120" y="100" width="61.25" height="30" as="geometry" />
        </mxCell>
        <mxCell id="P-KI92WygOCYOFbgIHo4-11" value="Update.h" style="rounded=1;whiteSpace=wrap;html=1;" parent="1" vertex="1">
          <mxGeometry x="370" y="100" width="100" height="30" as="geometry" />
        </mxCell>
        <mxCell id="P-KI92WygOCYOFbgIHo4-13" value="" style="endArrow=classic;html=1;exitX=0.5;exitY=1;exitDx=0;exitDy=0;entryX=0;entryY=0.5;entryDx=0;entryDy=0;" parent="1" source="P-KI92WygOCYOFbgIHo4-11" target="P-KI92WygOCYOFbgIHo4-2" edge="1">
          <mxGeometry width="50" height="50" relative="1" as="geometry">
            <mxPoint x="416.25" y="250" as="sourcePoint" />
            <mxPoint x="456.25" y="310" as="targetPoint" />
            <Array as="points">
              <mxPoint x="420" y="190" />
            </Array>
          </mxGeometry>
        </mxCell>
        <mxCell id="P-KI92WygOCYOFbgIHo4-14" value="" style="endArrow=classic;html=1;exitX=0.5;exitY=1;exitDx=0;exitDy=0;entryX=0.5;entryY=0;entryDx=0;entryDy=0;" parent="1" source="P-KI92WygOCYOFbgIHo4-1" target="P-KI92WygOCYOFbgIHo4-11" edge="1">
          <mxGeometry width="50" height="50" relative="1" as="geometry">
            <mxPoint x="410" y="50" as="sourcePoint" />
            <mxPoint x="712.5" y="-5" as="targetPoint" />
          </mxGeometry>
        </mxCell>
        <mxCell id="P-KI92WygOCYOFbgIHo4-21" value="" style="endArrow=classic;html=1;exitX=0;exitY=0.5;exitDx=0;exitDy=0;entryX=0.5;entryY=0;entryDx=0;entryDy=0;" parent="1" source="P-KI92WygOCYOFbgIHo4-1" target="P-KI92WygOCYOFbgIHo4-7" edge="1">
          <mxGeometry width="50" height="50" relative="1" as="geometry">
            <mxPoint x="250" y="110" as="sourcePoint" />
            <mxPoint x="300" y="60" as="targetPoint" />
            <Array as="points">
              <mxPoint x="249" y="30" />
            </Array>
          </mxGeometry>
        </mxCell>
        <mxCell id="P-KI92WygOCYOFbgIHo4-23" value="" style="endArrow=classic;html=1;exitX=0.5;exitY=1;exitDx=0;exitDy=0;entryX=-0.024;entryY=0.656;entryDx=0;entryDy=0;entryPerimeter=0;" parent="1" source="P-KI92WygOCYOFbgIHo4-7" target="P-KI92WygOCYOFbgIHo4-8" edge="1">
          <mxGeometry width="50" height="50" relative="1" as="geometry">
            <mxPoint x="260" y="170" as="sourcePoint" />
            <mxPoint x="310" y="120" as="targetPoint" />
            <Array as="points">
              <mxPoint x="249" y="245" />
            </Array>
          </mxGeometry>
        </mxCell>
        <mxCell id="P-KI92WygOCYOFbgIHo4-29" value="" style="endArrow=classic;html=1;exitX=0;exitY=0.25;exitDx=0;exitDy=0;entryX=0.5;entryY=0;entryDx=0;entryDy=0;" parent="1" source="P-KI92WygOCYOFbgIHo4-1" target="P-KI92WygOCYOFbgIHo4-10" edge="1">
          <mxGeometry width="50" height="50" relative="1" as="geometry">
            <mxPoint x="154" y="10" as="sourcePoint" />
            <mxPoint x="150" y="97" as="targetPoint" />
            <Array as="points">
              <mxPoint x="151" y="20" />
            </Array>
          </mxGeometry>
        </mxCell>
        <mxCell id="P-KI92WygOCYOFbgIHo4-30" value="" style="endArrow=classic;html=1;exitX=1;exitY=0.5;exitDx=0;exitDy=0;entryX=0;entryY=0.5;entryDx=0;entryDy=0;" parent="1" source="P-KI92WygOCYOFbgIHo4-10" target="P-KI92WygOCYOFbgIHo4-7" edge="1">
          <mxGeometry width="50" height="50" relative="1" as="geometry">
            <mxPoint x="181.25" y="120" as="sourcePoint" />
            <mxPoint x="231.25" y="70" as="targetPoint" />
          </mxGeometry>
        </mxCell>
        <mxCell id="P-KI92WygOCYOFbgIHo4-31" value="" style="endArrow=classic;html=1;exitX=1;exitY=0.5;exitDx=0;exitDy=0;entryX=0;entryY=0.5;entryDx=0;entryDy=0;" parent="1" source="P-KI92WygOCYOFbgIHo4-7" target="P-KI92WygOCYOFbgIHo4-11" edge="1">
          <mxGeometry width="50" height="50" relative="1" as="geometry">
            <mxPoint x="410" y="170" as="sourcePoint" />
            <mxPoint x="290" y="90" as="targetPoint" />
          </mxGeometry>
        </mxCell>
        <mxCell id="P-KI92WygOCYOFbgIHo4-32" value="" style="endArrow=classic;html=1;entryX=0;entryY=0.5;entryDx=0;entryDy=0;exitX=1;exitY=0.5;exitDx=0;exitDy=0;" parent="1" source="P-KI92WygOCYOFbgIHo4-11" target="P-KI92WygOCYOFbgIHo4-9" edge="1">
          <mxGeometry width="50" height="50" relative="1" as="geometry">
            <mxPoint x="470" y="120" as="sourcePoint" />
            <mxPoint x="520" y="70" as="targetPoint" />
          </mxGeometry>
        </mxCell>
        <mxCell id="P-KI92WygOCYOFbgIHo4-34" value="" style="endArrow=classic;html=1;entryX=0;entryY=0.5;entryDx=0;entryDy=0;exitX=0.999;exitY=0.346;exitDx=0;exitDy=0;exitPerimeter=0;" parent="1" source="P-KI92WygOCYOFbgIHo4-1" target="P-KI92WygOCYOFbgIHo4-5" edge="1">
          <mxGeometry width="50" height="50" relative="1" as="geometry">
            <mxPoint x="580" y="310" as="sourcePoint" />
            <mxPoint x="590" y="280" as="targetPoint" />
            <Array as="points">
              <mxPoint x="610" y="24" />
              <mxPoint x="610" y="290" />
            </Array>
          </mxGeometry>
        </mxCell>
        <mxCell id="P-KI92WygOCYOFbgIHo4-35" value="" style="endArrow=classic;html=1;entryX=0;entryY=0.5;entryDx=0;entryDy=0;" parent="1" target="P-KI92WygOCYOFbgIHo4-6" edge="1">
          <mxGeometry width="50" height="50" relative="1" as="geometry">
            <mxPoint x="390" y="131" as="sourcePoint" />
            <mxPoint x="390" y="340" as="targetPoint" />
            <Array as="points">
              <mxPoint x="390" y="340" />
            </Array>
          </mxGeometry>
        </mxCell>
        <mxCell id="P-KI92WygOCYOFbgIHo4-36" value="" style="endArrow=classic;html=1;" parent="1" edge="1">
          <mxGeometry width="50" height="50" relative="1" as="geometry">
            <mxPoint x="490" y="242" as="sourcePoint" />
            <mxPoint x="697" y="242" as="targetPoint" />
          </mxGeometry>
        </mxCell>
        <mxCell id="bJrXb1evrDgHzvOG3wmY-1" value="" style="endArrow=classic;html=1;exitX=0.5;exitY=1;exitDx=0;exitDy=0;entryX=0;entryY=0.75;entryDx=0;entryDy=0;" edge="1" parent="1" source="P-KI92WygOCYOFbgIHo4-10" target="P-KI92WygOCYOFbgIHo4-2">
          <mxGeometry width="50" height="50" relative="1" as="geometry">
            <mxPoint x="460" y="250" as="sourcePoint" />
            <mxPoint x="440" y="190" as="targetPoint" />
            <Array as="points">
              <mxPoint x="151" y="200" />
            </Array>
          </mxGeometry>
        </mxCell>
        <mxCell id="bJrXb1evrDgHzvOG3wmY-2" value="" style="endArrow=classic;html=1;entryX=0;entryY=0.25;entryDx=0;entryDy=0;exitX=0.5;exitY=1;exitDx=0;exitDy=0;" edge="1" parent="1" source="P-KI92WygOCYOFbgIHo4-9" target="P-KI92WygOCYOFbgIHo4-2">
          <mxGeometry width="50" height="50" relative="1" as="geometry">
            <mxPoint x="550" y="160" as="sourcePoint" />
            <mxPoint x="510" y="200" as="targetPoint" />
            <Array as="points">
              <mxPoint x="538" y="180" />
            </Array>
          </mxGeometry>
        </mxCell>
        <mxCell id="bJrXb1evrDgHzvOG3wmY-3" value="" style="endArrow=classic;html=1;entryX=0;entryY=1;entryDx=0;entryDy=0;" edge="1" parent="1" target="P-KI92WygOCYOFbgIHo4-2">
          <mxGeometry width="50" height="50" relative="1" as="geometry">
            <mxPoint x="450" y="225" as="sourcePoint" />
            <mxPoint x="510" y="200" as="targetPoint" />
            <Array as="points">
              <mxPoint x="450" y="210" />
            </Array>
          </mxGeometry>
        </mxCell>
      </root>
    </mxGraphModel>
  </diagram>
</mxfile>
